# xmcd
#
# Track frame offsets: 
#        150
#        11188
#        34723
#        50519
#        61843
#        81496
#        95480
#        119213
#        128403
#        154256
#
# Disc length: 2352 seconds
#
# Revision: 0
# Processed by: cddbd v1.5.2PL0 Copyright (c) Steve Scherf et al.
# Submitted via: ExactAudioCopy v0.99pb4
#
DISCID=85092e0a
DTITLE=Lyanna Austin - Suddenly she became....
DYEAR=2007
DGENRE=R&B
TTITLE0=Way To City
TTITLE1=Keep Your Head Up
TTITLE2=Knowing Your Voice
TTITLE3=It's Mine
TTITLE4=Day After Day
TTITLE5=It's One Of Those Days
TTITLE6=Pray
TTITLE7=Yours Sincereley
TTITLE8=Some People (Bonus Amazing Grace)
TTITLE9=Can't See
EXTD=
EXTT0=
EXTT1=
EXTT2=
EXTT3=
EXTT4=
EXTT5=
EXTT6=
EXTT7=
EXTT8=
EXTT9=
PLAYORDER=
